<svg width="106" height="26" viewBox="0 0 106 26" fill="none" xmlns="http://www.w3.org/2000/svg">
<path d="M4.35955 0H8.7191V4.33333H4.35955V0Z" fill="#FF7A00"/>
<path d="M0 4.33333H4.35955V8.66667H0V4.33333Z" fill="#FF7A00"/>
<path d="M0 8.66667H4.35955V13H0V8.66667Z" fill="#FF7A00"/>
<path d="M0 13H4.35955V17.3333H0V13Z" fill="#FF7A00"/>
<path d="M4.35955 17.3333H8.7191V21.6667H4.35955V17.3333Z" fill="#FF7A00"/>
<path d="M8.7191 4.33333H13.0787V8.66667H8.7191V4.33333Z" fill="#FF7A00"/>
<path d="M22.8876 0H27.2472V4.33333H22.8876V0Z" fill="#17181A"/>
<path d="M27.2472 0H31.6067V4.33333H27.2472V0Z" fill="#17181A"/>
<path d="M70.8427 4.33333H75.2022V8.66667H70.8427V4.33333Z" fill="#17181A"/>
<path d="M75.2022 4.33333H79.5618V8.66667H75.2022V4.33333Z" fill="#17181A"/>
<path d="M66.4831 8.66667H70.8427V13H66.4831V8.66667Z" fill="#17181A"/>
<path d="M70.8427 13H75.2022V17.3333H70.8427V13Z" fill="#17181A"/>
<path d="M66.4831 17.3333H70.8427V21.6667H66.4831V17.3333Z" fill="#17181A"/>
<path d="M62.1236 17.3333H66.4831V21.6667H62.1236V17.3333Z" fill="#17181A"/>
<path d="M31.6067 4.33333H35.9663V8.66667H31.6067V4.33333Z" fill="#17181A"/>
<path d="M27.2472 8.66667H31.6067V13H27.2472V8.66667Z" fill="#17181A"/>
<path d="M49.0449 4.33333H53.4045V8.66667H49.0449V4.33333Z" fill="#17181A"/>
<path d="M53.4045 8.66667H57.764V13H53.4045V8.66667Z" fill="#17181A"/>
<path d="M49.0449 13H53.4045V17.3333H49.0449V13Z" fill="#17181A"/>
<path d="M31.6067 13H35.9663V17.3333H31.6067V13Z" fill="#17181A"/>
<path d="M35.9663 17.3333H40.3258V21.6667H35.9663V17.3333Z" fill="#17181A"/>
<path d="M22.8876 4.33333H27.2472V8.66667H22.8876V4.33333Z" fill="#17181A"/>
<path d="M83.9213 4.33333H88.2809V8.66667H83.9213V4.33333Z" fill="#17181A"/>
<path d="M88.2809 4.33333H92.6404V8.66667H88.2809V4.33333Z" fill="#17181A"/>
<path d="M88.2809 8.66667H92.6404V13H88.2809V8.66667Z" fill="#17181A"/>
<path d="M88.2809 13H92.6404V17.3333H88.2809V13Z" fill="#17181A"/>
<path d="M88.2809 17.3333H92.6404V21.6667H88.2809V17.3333Z" fill="#17181A"/>
<path d="M92.6404 4.33333H97V8.66667H92.6404V4.33333Z" fill="#17181A"/>
<path d="M22.8876 8.66667H27.2472V13H22.8876V8.66667Z" fill="#17181A"/>
<path d="M44.6854 8.66667H49.0449V13H44.6854V8.66667Z" fill="#17181A"/>
<path d="M22.8876 13H27.2472V17.3333H22.8876V13Z" fill="#17181A"/>
<path d="M44.6854 13H49.0449V17.3333H44.6854V13Z" fill="#17181A"/>
<path d="M22.8876 17.3333H27.2472V21.6667H22.8876V17.3333Z" fill="#17181A"/>
<path d="M49.0449 17.3333H53.4045V21.6667H49.0449V17.3333Z" fill="#17181A"/>
<path d="M53.4045 17.3333H57.764V21.6667H53.4045V17.3333Z" fill="#17181A"/>
<path d="M8.7191 8.66667H13.0787V13H8.7191V8.66667Z" fill="#FF7A00"/>
<path d="M8.7191 13H13.0787V17.3333H8.7191V13Z" fill="#FF7A00"/>
<path d="M13.0787 21.6667H17.4382V26H13.0787V21.6667Z" fill="#FF7A00"/>
<path d="M8.7191 17.3333H13.0787V21.6667H8.7191V17.3333Z" fill="#FF7A00"/>
<path d="M101.5 17.3596H105.86V21.6929H101.5V17.3596Z" fill="#17181A"/>
<path d="M97.1404 17.3596H101.5V21.6929H97.1404V17.3596Z" fill="#17181A"/>
<path d="M101.5 13.0262H105.86V17.3596H101.5V13.0262Z" fill="#17181A"/>
</svg>
